<?xml version="1.0" encoding="utf-8"?>
<!-- Generator: Adobe Illustrator 27.5.0, SVG Export Plug-In . SVG Version: 6.00 Build 0)  -->
<svg version="1.1" id="svg2" xmlns:svg="http://www.w3.org/2000/svg"
	xmlns="http://www.w3.org/2000/svg" xmlns:xlink="http://www.w3.org/1999/xlink" x="0px" y="0px"
	viewBox="0 0 500 72"
	style="enable-background:new 0 0 500 72;" xml:space="preserve">
<style type="text/css">
	.st0{fill-rule:evenodd;clip-rule:evenodd;fill:#231F20;}
	.st1{fill:#231F20;}
</style>
<g id="layer1" transform="translate(-81.071429,-984.04451)">
	<g id="g3188" transform="translate(1.9021745,1.841155)">
		<path id="path2396" class="st0" d="M81.1,1052.4h18.2v-19.6h34.5v-9.3H99.3v-11.8h37.5V1000H98c-6.9,0-16.7,9-16.7,16.7
			L81.1,1052.4z"/>
		<path id="path2398" class="st0" d="M160.2,1000.6c-6,0-16.1,9.6-16.1,15v21.6c0,5.8,10.1,15.2,15,15.2h36c4,0,14.6-8.5,14.6-15.2
			v-20.6c0-6.5-9.2-16-15.4-16H160.2z M162.2,1012h30.2c0,0,0.2,28.2,0,29.1s-30.2,0-30.2,0V1012z"/>
		<path id="path2402" class="st0" d="M214.8,999.9h20.7l11.4,13.8l12.7-13.8h21.6l-23.2,26.4l22.5,26.1H260l-13-14.5l-12,14.5h-21.4
			l23-26.1L214.8,999.9z"/>
		<path id="path2404" class="st0" d="M340.4,1012.4h-37.9v28.9h37.9v11.1h-37.9c-3.8,0-17.3-8.7-17.3-15.4v-21.6
			c0-4.6,10.8-15,17.3-15h38L340.4,1012.4z"/>
		<path id="path2406" class="st0" d="M422,1052.4h18.4v-40.2h29.5v40.2h17.8v-34.8c0.1-6.9-8.7-17.5-17.2-17.4h-48.1L422,1052.4z"/>
		<path id="text2408" class="st1" d="M568.5,984c1.5,0,2.9,0.4,4.3,1.1c1.4,0.8,2.5,1.8,3.3,3.3c0.8,1.4,1.2,2.9,1.2,4.4
			c0,1.5-0.4,3-1.2,4.4c-0.8,1.4-1.9,2.5-3.3,3.3c-1.4,0.8-2.9,1.2-4.4,1.2c-1.5,0-3-0.4-4.4-1.2c-1.4-0.8-2.5-1.9-3.3-3.3
			c-0.8-1.4-1.2-2.9-1.2-4.4c0-1.5,0.4-3,1.2-4.4c0.8-1.4,1.9-2.5,3.3-3.3C565.6,984.4,567,984,568.5,984L568.5,984z M568.5,985.5
			c-1.2,0-2.4,0.3-3.6,1c-1.2,0.6-2.1,1.5-2.7,2.7c-0.7,1.2-1,2.4-1,3.7c0,1.3,0.3,2.5,1,3.6c0.6,1.2,1.6,2.1,2.7,2.7
			c1.2,0.6,2.4,1,3.7,1c1.3,0,2.5-0.3,3.7-1c1.2-0.6,2.1-1.6,2.7-2.7c0.6-1.2,1-2.4,1-3.6c0-1.3-0.3-2.5-1-3.7
			c-0.7-1.2-1.6-2.1-2.7-2.7C570.9,985.8,569.7,985.5,568.5,985.5L568.5,985.5z M564.6,997.7v-9.5h3.3c1.1,0,1.9,0.1,2.4,0.3
			c0.5,0.2,0.9,0.5,1.2,0.9c0.3,0.4,0.4,0.9,0.4,1.4c0,0.7-0.2,1.3-0.7,1.8s-1.1,0.8-2,0.9c0.3,0.1,0.6,0.3,0.8,0.5
			c0.4,0.4,0.8,1,1.4,1.9l1.2,1.9h-1.9l-0.8-1.5c-0.7-1.2-1.2-1.9-1.6-2.2c-0.3-0.2-0.7-0.3-1.2-0.3h-0.9v4H564.6z M566.1,992.4h1.9
			c0.9,0,1.5-0.1,1.8-0.4s0.5-0.6,0.5-1c0-0.3-0.1-0.5-0.2-0.8c-0.2-0.2-0.4-0.4-0.6-0.5c-0.3-0.1-0.8-0.2-1.5-0.2h-1.7V992.4z"/>
		<path id="path2413" class="st0" d="M364.6,1000.6c-6,0-16.1,9.6-16.1,15v21.6c0,5.8,10.1,15.2,15,15.2h36c4,0,14.6-8.5,14.6-15.2
			v-20.6c0-6.5-9.2-16-15.4-16H364.6z M366.6,1012h30.2c0,0,0.2,28.2,0,29.1c-0.2,0.9-30.2,0-30.2,0V1012z"/>
		<path id="path2415" class="st0" d="M494.7,1052.4h18.4v-40.2h29.5v40.2h17.8v-34.8c0.1-6.9-8.7-17.5-17.2-17.4h-48.1L494.7,1052.4
			z"/>
	</g>
</g>
</svg>