<?xml version="1.0" encoding="utf-8"?>
<!-- Generator: Adobe Illustrator 27.5.0, SVG Export Plug-In . SVG Version: 6.00 Build 0)  -->
<svg version="1.1" id="Layer_1" xmlns:v="https://vecta.io/nano"
	xmlns="http://www.w3.org/2000/svg" xmlns:xlink="http://www.w3.org/1999/xlink" x="0px" y="0px"
	viewBox="0 0 705.6 720"
	style="enable-background:new 0 0 705.6 720;" xml:space="preserve">
<style type="text/css">
	.st0{fill:#231F20;}
</style>
<g transform="translate(1184.583 765.171)">
	<path class="st0" d="M-824.6-470.6v139.4h193.7c-8.5,44.8-34,82.8-72.3,108.3l116.8,90.7C-518.3-195.1-479-287.3-479-397
		c0-25.5-2.3-50.1-6.5-73.6H-824.6z"/>
	<path class="st0" d="M-1026.3-336.6l-26.4,20.2l-93.3,72.7l0,0C-1086.8-126.2-965.4-45-824.6-45c97.2,0,178.7-32.1,238.3-87.1
		l-116.8-90.7c-32.1,21.6-73,34.7-121.4,34.7c-93.6,0-173.1-63.2-201.6-148.3L-1026.3-336.6z"/>
	<path class="st0" d="M-1146-566.5c-24.5,48.4-38.6,103.1-38.6,161.3s14.1,112.9,38.6,161.3c0,0.3,119.8-92.9,119.8-92.9
		c-7.2-21.6-11.5-44.5-11.5-68.4s4.3-46.8,11.5-68.4L-1146-566.5z"/>
	<path class="st0" d="M-824.6-621.8c53,0,100.1,18.3,137.8,53.7l103.1-103.1c-62.5-58.3-143.7-93.9-240.9-93.9
		c-140.7,0-262.1,80.8-321.4,198.7l119.8,92.9C-997.7-558.7-918.2-621.8-824.6-621.8L-824.6-621.8z"/>
</g>
</svg>