<?xml version="1.0" encoding="utf-8"?>
<!-- Generator: Adobe Illustrator 27.5.0, SVG Export Plug-In . SVG Version: 6.00 Build 0)  -->
<svg version="1.1" id="Layer_1" xmlns="http://www.w3.org/2000/svg"
	xmlns:xlink="http://www.w3.org/1999/xlink" x="0px" y="0px"
	viewBox="0 0 720 720" style="enable-background:new 0 0 720 720;" xml:space="preserve">
<style type="text/css">
	.st0{fill:#FFFFFF;}
	.st1{fill:#231F20;}
	.st2{fill:#006241;}
</style>
<circle class="st0" cx="360" cy="360" r="360"/>
<path class="st1" d="M396.2,155.6c-24-4.2-48.5-4.2-72.4,0c-1.8,0.3-2.5-1.4-1.1-2.5c1.2-0.9,37.3-28.4,37.3-28.4
	s36.1,27.5,37.3,28.4C398.7,154.2,398,156,396.2,155.6z M333.9,333.9c-1.1,0.4-2,1.3-2.4,2.4c7.6,5.8,12.8,19,28.5,19
	c15.7,0,21-13.2,28.5-19c-0.4-1.1-1.3-1.9-2.4-2.4c0,0-9.9,2.3-26.1,2.3C343.8,336.2,333.9,333.9,333.9,333.9z M360,311.7
	c-4.4,0-5.4-1.7-8.3-1.6c-2.9,0-8.4,2.3-9.6,4.4c0.1,1.1,0.5,2.1,1.2,2.8c6.4,1,9.3,4.5,16.7,4.5c7.4,0,10.3-3.6,16.7-4.5
	c0.7-0.8,1.2-1.8,1.2-2.8c-1.2-2.1-6.7-4.3-9.6-4.4C365.4,310,364.4,311.7,360,311.7z M719.5,379.7c-0.5,8.6-1.2,17.1-2.3,25.6
	c-40.7,6.8-55.3-29.6-97.1-27.8c2.5,8.9,4.5,18,6.1,27.1c34.5,0,48.3,32.2,86.6,27.4c-2,9.8-4.4,19.5-7.2,29.1
	c-30.3,3-40.9-27.1-76-26.3c0.3,5,0.4,10,0.4,15.1c0,2.8-0.1,5.6-0.2,8.4c29.9-0.4,39.6,27.3,68.1,26c-3.6,9.7-7.5,19.1-11.9,28.4
	c-20.5-1.1-27.5-27.4-58.6-25.3c-0.9,6.7-2.1,13.4-3.6,19.9c27.1-1.9,32.9,23,52.2,25c-4.9,9-10.2,17.8-15.9,26.3
	c-11.5-6.1-21.4-24.7-43.2-25.8c2.2-6.9,4.2-13.9,5.9-21c-19.3,0-41.4-7.5-59.9-24.4c6-34.2-47-68.9-47-93.9
	c0-27.1,13.8-42.2,13.8-78.8c0-27.2-13.2-56.7-33.1-76.8c-3.7-3.8-7.9-7.1-12.3-9.9c18.3,22.6,32.3,49.5,32.3,80.5
	c0,34.5-16.1,52.7-16.1,84.5c0,31.8,46.5,59.4,46.5,92.2c0,12.9-4.1,25.5-17.7,50.3c20.9,20.9,48.1,32.3,65.7,32.3
	c5.7,0,8.8-1.7,10.8-6.2c1.8-3.9,3.4-7.8,5-11.7c18.9,0.7,27.6,17.9,38,24.8c-5.7,7.7-11.8,15.2-18.1,22.4
	c-7-7.8-16.5-20.9-30.3-24.5c-2.5,4.8-5.1,9.6-7.9,14.2c11.9,3.2,20,15.2,26.3,23.1c-6.8,7-13.9,13.8-21.2,20.3
	c-4.6-7.1-11.8-16.2-19.8-21.1c-2.9,4-6,7.9-9.2,11.7c6.8,4.6,12.9,12.9,16.8,19.7c-8.5,6.8-17.3,13.3-26.4,19.4
	c-4.5-36.6-54.4-61.6-41-104.1c-4.4,7.5-9.7,16.9-9.7,28.1c0,30.7,32.7,55.1,35.3,85.6c-6.8,4-13.7,7.9-20.8,11.5
	c-1.2-33.6-35.8-70.2-35.8-97.8c0-30.7,40.3-61.6,40.3-97.9s-46.4-61.4-46.4-93.3s19.7-50.2,19.7-91c0-29.9-14.2-60.2-36.1-79.5
	c-3.7-3.4-7.9-6.2-12.3-8.5c20.7,24.8,32.7,47.4,32.7,81.5c0,38.4-22.6,59.7-22.6,97.3c0,37.6,45.5,58.5,45.5,93.5
	c0,35-42.4,64.6-42.4,100.6c0,32.7,37.4,65.4,38,104.3c-8.2,3.6-16.5,6.8-25,9.8c4.8-39.3-37.3-79.7-37.3-111.8
	c0-35,44-65.1,44-102.9c0-37.8-44.7-55.3-44.7-94.1S468,331,468,288.2c0-33.4-16.5-63.4-40.6-82c-0.5-0.4-1-0.8-1.5-1.2
	c-2.3-1.7-4.1,0.4-2.5,2.3c17,21.3,26.1,42.8,26.1,74.6c0,39.2-31.5,71-31.5,108.9c0,44.8,42.3,57.6,42.3,94.3
	c0,36.7-45.4,66.1-45.4,105.1c0,36.2,43,76.3,35.6,118.1c-8.6,2.2-17.4,4.1-26.2,5.7c8-52-34.1-89.3-34.1-123.3
	c0-36.8,47-69.6,47-105.6c0-33.9-33.8-45-38.2-79.7c-0.6-4.7-4.4-8.2-9.7-7.4c-6.9,1.2-15.6,5.8-29.4,5.8c-13.8,0-22.6-4.5-29.5-5.8
	c-5.2-0.9-9,2.6-9.6,7.4c-4.4,34.7-38.2,45.8-38.2,79.7c0,36,47,68.8,47,105.6c0,34-42.1,71.3-34.1,123.3
	c-8.8-1.6-17.6-3.5-26.2-5.7c-7.4-41.8,35.6-81.9,35.6-118.1c0-39-45.4-68.4-45.4-105.1c0-36.7,42.3-49.5,42.3-94.3
	c0-38-31.5-69.8-31.5-108.9c0-31.9,9.1-53.4,26.2-74.6c1.6-2-0.3-4-2.5-2.3c-0.5,0.4-1,0.8-1.5,1.2c-24.1,18.6-40.5,48.6-40.5,82
	c0,42.8,27.5,64.3,27.5,103s-44.7,56.3-44.7,94.1c0,37.8,44,67.9,44,102.9c0,32-42.1,72.5-37.3,111.8c-8.5-3-16.8-6.2-25-9.8
	c0.6-38.8,37.9-71.6,37.9-104.3c0-36-42.4-65.5-42.4-100.6c0-35,45.5-55.9,45.5-93.5c0-37.6-22.6-58.9-22.6-97.3
	c0-34.2,12-56.7,32.7-81.5c-4.5,2.3-8.6,5.2-12.3,8.5c-21.9,19.3-36.2,49.6-36.2,79.5c0,40.8,19.8,59.1,19.8,91s-46.4,57-46.4,93.3
	s40.3,67.1,40.3,97.9c0,27.6-34.6,64.2-35.8,97.8c-7.1-3.6-14-7.4-20.8-11.5c2.6-30.5,35.3-54.9,35.3-85.6c0-11.2-5.3-20.6-9.7-28.1
	c13.5,42.4-36.4,67.5-40.9,104.1c-9.1-6.1-17.9-12.5-26.4-19.4c3.9-6.8,9.9-15.1,16.8-19.7c-3.2-3.8-6.3-7.7-9.2-11.7
	c-8,4.9-15.2,14-19.8,21.1c-7.3-6.5-14.4-13.2-21.2-20.3c6.3-7.9,14.4-19.9,26.3-23.1c-2.8-4.6-5.4-9.4-7.8-14.2
	c-13.8,3.6-23.3,16.7-30.3,24.5c-6.3-7.2-12.4-14.7-18.1-22.4c10.5-6.9,19.1-24.1,38.1-24.8c1.6,3.9,3.2,7.9,5,11.7
	c2.1,4.5,5.1,6.2,10.8,6.2c17.6,0,44.8-11.4,65.7-32.3c-13.6-24.8-17.7-37.4-17.7-50.3c0-32.8,46.6-60.4,46.6-92.2
	c0-31.8-16.1-50-16.1-84.5c0-31.1,14-57.9,32.3-80.5c-4.5,2.8-8.6,6.1-12.3,9.9c-19.9,20.2-33.1,49.6-33.1,76.8
	c0,36.6,13.7,51.7,13.7,78.8c0,25-53,59.8-47,93.9c-18.5,16.9-40.6,24.4-59.9,24.4c1.7,7.1,3.6,14.1,5.9,21
	c-21.8,1.2-31.7,19.7-43.2,25.8c-5.6-8.5-10.9-17.3-15.9-26.3c19.4-2,25.2-26.9,52.2-25c-1.4-6.6-2.6-13.2-3.6-19.9
	c-31.1-2.1-38.2,24.1-58.6,25.3c-4.4-9.3-8.3-18.7-11.9-28.4c28.5,1.3,38.2-26.3,68.1-26c-0.1-2.8-0.1-5.6-0.1-8.4
	c0-5.1,0.2-10.1,0.4-15.1c-35-0.8-45.7,29.3-76,26.3c-2.8-9.6-5.2-19.3-7.2-29.1c38.3,4.7,52.1-27.4,86.6-27.4
	c1.5-9.1,3.6-18.2,6.1-27.1c-41.7-1.8-56.3,34.5-97.1,27.8c-1.1-8.4-1.8-17-2.3-25.6c47.4,5.3,65.1-33.6,108.2-28.9
	c4-10.3,8.8-20.2,14.1-29.9c-54.1-9.5-72.4,35.7-122.7,28.8C5.6,155.7,164.6,0,360,0c195.4,0,354.4,155.7,359.8,349.7
	c-50.3,6.9-68.7-38.3-122.8-28.8c5.4,9.6,10.1,19.6,14.1,29.9C654.3,346.1,672.1,385,719.5,379.7z M205.2,228.7
	c-26.5-10.8-58.6-8.3-86,9.3c-4.2-25.5-18.1-48.1-37.8-61.8c-2.7-1.9-5.5-0.1-5.3,3.1c4.2,53.9-27.3,100.7-66.1,141.8
	C50,333,84,281.7,135.7,299.6C154.4,271.9,177.9,247.9,205.2,228.7z M360,196.2c-33.4,0-61.4,18.9-68.8,43.3
	c-0.6,1.9,0.2,3.1,2.4,2.1c6.4-2.8,13.3-4.1,20.3-4c13.6,0,25.6,5,32.7,13.7c3.2,10.4,3.4,25.4-0.1,33.9c-5.6-1.2-7.6-5.6-13.1-5.6
	c-5.5,0-9.7,3.9-19,3.9s-10.4-4.4-16.5-4.4c-7.2,0-8.5,7.4-8.5,15.8c0,37.2,34.2,88.5,70.6,88.5c36.4,0,70.6-51.2,70.6-88.5
	c0-8.4-1.7-15.5-9.2-16.5c-3.7,2.7-7.2,5.1-15.8,5.1c-9.3,0-11.9-3.9-17.3-3.9c-6.6,0-5.9,13.9-13.8,14.7
	c-5.2-12.6-5.5-28.7-1.1-43.1c7.1-8.7,19.1-13.7,32.7-13.7c7-0.1,13.9,1.2,20.3,4c2.2,1,2.9-0.2,2.4-2.1
	C421.4,215.1,393.4,196.2,360,196.2z M413.2,249.6c-8,0-17.4,2.5-23.3,9c-0.7,2-0.6,4.3,0.3,6.2c14.5-5,27.4-5.2,33.5,1.7
	c3.3-3,4.4-5.7,4.4-8.8C428,252.9,423.1,249.6,413.2,249.6z M296.3,266.6c7-7,21.8-6.7,37.1-1.1c0.7-7.6-13-16-26.6-16
	c-9.9,0-14.8,3.3-14.8,8.2C292,260.9,293,263.6,296.3,266.6z M526.6,140.6c-26.4,1.9-49.3,10.9-67.8,26
	c7.5-21.5,17.8-41.9,30.5-60.8c-33.6,3.6-61.7,15.9-82.1,36.8l-16.1-42.1l35.6-31.5L379,65.8l-19-44.3l-19,44.3l-47.7,3.4l35.6,31.5
	l-16,42.1c-20.5-21-48.6-33.3-82.2-36.8c12.7,18.9,23,39.3,30.5,60.8c-18.5-15.1-41.4-24.2-67.9-26c15.8,20.4,29.9,42.1,40.3,65.4
	c1.2,2.6,3.7,3.5,6.4,2.1c75.6-37.4,164.3-37.4,239.9,0c2.7,1.3,5.2,0.5,6.4-2.1C496.8,182.6,510.8,160.9,526.6,140.6z M584.2,299.6
	c51.8-18,85.8,33.4,125.7,21.4c-38.7-41.1-70.2-87.9-66.1-141.8c0.3-3.2-2.6-5-5.3-3.1c-19.7,13.7-33.6,36.3-37.8,61.8
	c-27.4-17.6-59.5-20.1-86-9.3C542.1,247.9,565.6,271.9,584.2,299.6z"/>
<path class="st2" d="M578.3,679.2c6.2,0,11.2,5,11.2,11.2s-5,11.2-11.2,11.2s-11.2-5-11.2-11.2c0,0,0,0,0,0
	c0-6.2,4.9-11.2,11.1-11.2C578.3,679.2,578.3,679.2,578.3,679.2z M578.3,700c5.3,0.2,9.7-3.9,10-9.2s-3.9-9.7-9.2-10
	c-5.3-0.2-9.7,3.9-10,9.2c0,0.1,0,0.2,0,0.4c-0.1,5.1,3.9,9.4,9,9.6C578.2,700,578.3,700,578.3,700z M574.1,683.8h5
	c3.1,0,4.6,1.2,4.6,3.7c0,2.4-1.5,3.4-3.5,3.6l3.8,5.8h-2.1l-3.6-5.6h-2.1v5.6h-2L574.1,683.8z M576.1,689.7h2.1
	c1.8,0,3.5-0.1,3.5-2.2c0-1.8-1.6-2-2.9-2h-2.6L576.1,689.7z"/>
</svg>